<svg height="1104pt" preserveAspectRatio="xMidYMid meet" viewBox="0 0 1104 1104" width="1104pt" xmlns="http://www.w3.org/2000/svg"><g transform="matrix(.1 0 0 -.1 0 1104)"><path d="m20 9085c10-20 23-41 28-48s21-32 34-57c29-51 45-80 117-203 28-49 51-92 51-97s4-10 8-12c5-1 28-39 52-83s46-82 49-85 13-18 21-35c8-16 29-53 47-82s33-54 33-57 16-30 35-60 35-57 35-60c0-2 27-50 60-105 33-56 60-106 60-111 0-6 4-10 9-10s11-8 14-17c6-16 16-36 79-143 107-181 158-270 158-274 0-3 12-22 26-43s30-47 35-58 14-27 19-35c28-42 240-414 240-421 0-5 5-9 10-9 6 0 10-5 10-11s19-43 43-82c24-40 47-79 50-87 4-8 15-28 26-45 10-16 28-48 41-70 12-22 52-91 89-153 36-62 80-139 98-170 17-31 36-62 42-69s11-14 11-17c0-2 32-59 71-127 40-68 80-137 89-154 58-100 94-163 108-185 9-14 17-27 17-30s27-50 59-105 81-137 107-183c27-45 49-87 49-92 0-6 5-10 10-10 6 0 10-5 10-10 0-6 11-27 23-48 13-20 35-57 49-82s58-101 98-170 80-138 89-155c9-16 19-32 24-33 4-2 5-8 1-13-3-5 0-9 5-9 6 0 11-4 11-9s27-55 60-110c48-81 194-332 340-586 9-16 31-54 49-83 17-29 31-57 31-62 0-6 4-10 9-10s15-15 22-32c7-18 27-55 44-83 18-27 43-70 57-95 40-71 62-110 110-190 24-41 47-82 51-90s13-24 19-35c31-48 64-103 84-140 11-22 35-64 52-93 18-29 32-57 32-62 0-6 4-10 9-10s15-16 22-35 16-35 19-35c4 0 17-22 30-50 13-27 27-50 32-50 4 0 8-4 8-9 0-9 155-282 203-358 15-24 27-45 27-48s17-34 38-68c21-35 41-70 45-77 4-8 15-28 26-45 20-33 28-47 122-210 34-60 68-113 73-117 6-4 7-8 3-8-5 0 0-12 10-27 10-16 24-39 31-53 34-66 34-66 109-24 37 21 76 43 85 49 62 37 164 93 172 93 5 0 12 5 15 10s68 45 144 88c76 44 163 94 195 112 31 18 65 36 75 39 9 3 17 9 17 14s5 9 10 9c6 0 27 11 48 23 20 13 57 35 82 49 135 75 165 92 170 97 3 4 23 15 45 26s42 22 45 25 68 42 145 85c77 44 149 85 160 92s30 17 42 22c26 12 29 3-44 126-16 28-32 57-36 65s-18 33-32 55-28 47-32 55-18 33-32 55-30 49-36 60c-37 67-230 401-235 405-3 3-10 14-16 25-38 70-80 144-96 170-10 17-23 41-30 55s-15 27-18 30c-10 9-41 65-47 83-3 9-9 17-14 17s-9 5-9 10c0 6-44 86-97 178-54 92-97 170-95 175 1 4-2 7-6 7-5 0-19 20-33 45-33 63-48 90-93 165-38 64-58 98-95 163-10 18-51 89-91 157-40 69-81 140-91 158-11 17-27 47-38 65-10 17-36 61-57 97-55 93-83 141-97 170-6 14-14 27-17 30s-41 67-84 143-83 140-88 143c-4 3-6 10-3 15 4 5 2 9-3 9s-12 8-15 18c-8 22-46 89-74 129-13 17-23 34-23 37 0 4-18 36-40 72s-40 68-40 70-14 27-31 56c-89 149-169 291-169 299 0 5-4 9-9 9s-11 8-14 18c-4 9-17 35-30 57s-47 81-75 130c-28 50-56 95-62 102-5 7-10 14-10 17 0 9-84 151-92 154-4 2-8 8-8 13s-11 27-25 49-22 40-18 40c5 0 3 4-3 8s-37 53-70 110c-32 57-63 111-69 120-5 9-28 49-50 87-22 39-45 79-52 90s-16 28-19 38c-3 9-9 17-13 17-3 0-15 20-26 45s-23 45-27 45c-5 0-8 4-8 9s-20 42-44 82c-77 130-124 214-125 222 0 4-5 13-11 20-6 6-69 113-141 237-71 124-134 232-139 240-8 13-63 108-199 344-13 23-32 53-42 68-11 14-19 30-20 35 0 4-24 49-54 98-30 50-68 116-86 148l-32 57h-1027-1028z"/><path d="m3490 9108c0-7 14-33 30-58s30-50 30-57c0-6 3-13 8-15 8-4 35-48 60-98 9-19 20-36 25-38 4-2 7-10 7-18s3-14 8-14c4 0 20-27 37-60 16-33 33-60 37-60s8-6 8-14 6-21 13-28 21-32 31-55c11-24 23-43 28-43 4 0 8-4 8-9 0-8 25-53 77-139 12-21 25-44 29-52s27-48 51-88c24-41 43-78 43-83s5-9 10-9c6 0 10-4 10-9s52-98 115-206c63-109 115-199 115-201 0-1 23-39 50-84 28-45 50-83 50-86 0-2 13-25 29-51 56-92 82-138 88-155 3-10 9-18 14-18s9-5 9-11 23-49 51-97c29-48 63-107 77-132 13-25 28-49 32-55 7-9 34-57 74-130 6-11 16-27 22-35 7-8 24-37 39-65 14-27 34-63 44-80 23-38 157-268 183-315 11-19 60-103 109-187s89-157 89-162 3-11 8-13c4-1 14-16 23-33 9-16 56-97 104-180 48-82 99-170 112-194 14-24 60-103 102-175 43-73 80-138 84-146s16-28 26-45c10-16 60-102 111-190s101-175 111-192c11-18 29-50 40-70 12-21 30-51 40-68 10-16 23-39 29-50s24-42 41-70c17-27 35-62 42-77 6-16 15-28 19-28s8-7 8-15 4-15 10-15c5 0 9-3 8-7-1-5 5-19 14-33 31-49 124-212 154-270 10-19 21-37 24-40 14-12 40-61 40-75 0-8 5-15 10-15 6 0 14-8 17-17 4-10 62-113 130-230 68-116 123-214 123-218 0-3 5-11 10-18 6-7 53-86 105-177s100-172 105-180c6-8 16-26 22-40 7-14 15-27 19-30 3-3 23-36 44-75 21-38 49-87 62-107 12-21 23-42 23-48 0-5 5-10 10-10 6 0 10-4 10-9 0-9 47-94 85-156 7-11 12-22 12-25s19-33 41-68c23-35 47-77 54-93s16-29 20-29c5 0 8-6 8-14s7-22 16-30c8-9 13-16 10-16s10-25 29-55 35-59 35-65c0-5 5-10 10-10 6 0 10-4 10-10 0-5 20-44 45-86 25-41 45-80 45-85s5-9 10-9c6 0 10-4 10-10 0-8 71-137 100-180 6-8 14-25 20-37 5-13 12-23 16-23 6 0 314 174 504 285 61 36 115 65 121 65 5 0 9 4 9 9s8 11 18 14c9 3 40 20 67 36 28 17 66 39 85 49 79 42 105 57 110 62 3 3 15 11 28 18 12 6 32 18 45 25 12 6 24 14 27 17s27 17 55 30c27 14 58 33 69 43 11 9 24 17 29 17s35 15 66 34c61 37 106 63 161 92 19 11 37 21 40 24 9 9 45 30 77 44l33 15-23 43c-12 24-25 45-28 48-4 3-17 25-30 50s-25 47-28 50c-4 3-17 25-30 50-14 25-29 48-35 52s-8 8-4 8-17 41-47 90c-30 50-55 95-55 100 0 6-5 10-11 10-5 0-8 4-4 9 3 5 1 12-4 15s-35 52-67 108c-32 57-61 105-65 108-3 3-9 15-13 27-4 13-13 29-19 35-7 7-20 29-30 48-9 19-27 51-39 70-32 52-66 112-80 140-7 14-15 27-19 30-3 3-8 12-12 20s-20 38-37 65c-17 28-36 61-43 75-6 14-17 31-24 38s-13 17-13 22-18 38-40 72c-22 35-40 69-40 76 0 6-4 12-9 12s-11 8-14 18c-4 9-20 40-37 67-17 28-35 59-40 70-6 11-19 34-30 50-11 17-26 44-35 60-8 17-23 44-34 60-10 17-28 48-41 70-12 22-72 126-133 230-60 105-118 204-127 220-15 26-106 184-130 225-205 353-258 444-283 490-17 30-33 57-36 60-6 5-15 20-52 88-11 20-28 51-38 67-60 101-207 356-225 390-11 22-24 42-27 45-4 3-16 23-28 45s-37 67-57 100c-19 33-37 68-41 78-3 9-9 17-14 17s-9 4-9 9-19 42-43 83c-24 40-55 93-69 118s-58 101-98 170-83 143-95 165-39 67-59 100-36 66-36 73c0 6-4 12-8 12-5 0-15 12-23 28-7 15-30 54-50 87-19 33-49 85-66 115-16 30-39 69-49 87-10 17-48 83-83 145-36 62-89 153-118 201s-53 89-53 91c0 3-62 110-90 156-5 8-39 67-75 130-78 135-90 155-161 277-30 51-54 97-54 102 0 6-4 11-10 11-5 0-12 11-16 25-3 14-10 25-15 25s-9 4-9 9-21 45-47 90l-48 81h-1022c-812 0-1023-3-1023-12z"/><path d="m7021 9083c12-21 29-51 38-68 9-16 19-32 22-35s21-34 40-70 36-67 39-70 36-57 72-120 74-129 85-147c10-18 48-84 86-148 37-63 67-120 67-125 0-6 5-10 10-10 6 0 10-4 10-9s24-48 53-97 56-96 60-104 15-28 26-45c15-25 77-132 181-310 9-16 75-129 145-250s137-236 148-255c10-19 23-39 27-45 4-5 19-30 32-55 14-25 49-85 78-135 29-49 60-103 70-120 9-16 29-50 44-75s29-53 33-62c3-10 9-18 14-18s9-4 9-10c0-5 27-55 60-111 33-55 60-103 60-106 0-2 13-23 28-46 16-23 35-57 43-74 8-18 17-33 21-33 5 0 8-5 8-11s14-31 30-56c17-24 30-46 30-49 0-4 26-49 57-102 32-54 63-106 69-117 18-33 49-87 83-143 17-29 31-57 31-62 0-6 5-10 10-10 6 0 10-4 10-9 0-8 210-375 227-396 4-6 17-28 29-50s57-101 101-175c43-75 82-143 86-153 7-18 37-24 37-7 0 6 5 10 11 10s48 22 95 50c47 27 87 50 89 50s44 24 93 54c49 29 99 57 110 60 12 4 22 12 22 17s5 9 11 9c9 0 62 30 254 142 28 16 58 32 68 35 9 3 17 9 17 14s6 9 13 9 28 11 47 23c19 13 60 37 90 54 30 16 142 80 249 141 107 62 196 112 199 112s13 6 21 14c9 8 40 26 69 41 57 28 62 42 33 83-15 22-166 280-228 392-8 14-23 39-33 55-11 17-23 37-27 45-3 8-16 31-28 50s-33 55-47 80c-91 162-153 265-160 268-4 2-8 8-8 14s-20 44-45 85c-25 40-45 78-45 83s-6 15-13 22-29 41-48 75c-28 51-85 151-179 312-9 14-32 54-53 89-20 35-37 67-37 73 0 5-4 9-9 9s-13 10-17 22c-3 12-26 52-50 90-24 37-41 68-38 68 4 0 0 7-7 16-15 18-22 29-61 100-16 27-39 67-52 89-14 22-31 52-39 66-7 14-48 84-90 155-42 72-77 136-77 142 0 7-4 12-9 12s-13 10-17 23c-4 12-10 24-13 27-5 4-49 78-121 204-9 17-50 87-90 156-88 151-102 175-126 220-11 19-22 37-25 40s-21 33-39 68l-34 62h-1029-1029z"/></g></svg>